<?xml version="1.0" encoding="us-ascii" standalone="no"?><svg xmlns="http://www.w3.org/2000/svg" xmlns:xlink="http://www.w3.org/1999/xlink" contentStyleType="text/css" height="730px" preserveAspectRatio="none" style="width:1571px;height:730px;background:#FFFFFF;" version="1.1" viewBox="0 0 1571 730" width="1571px" zoomAndPan="magnify"><defs/><g><!--class users--><g id="elem_users"><rect codeLine="5" fill="#FFFFFF" height="146.0879" id="users" rx="2.5" ry="2.5" style="stroke:#000000;stroke-width:1.0;" width="228" x="610" y="12"/><ellipse cx="701.75" cy="26" fill="#FFFFFF" rx="9" ry="9" style="stroke:#000000;stroke-width:1.0;"/><path d="M705.3643,32.5 L697.6445,32.5 L697.6445,20.1069 L705.3643,20.1069 L705.3643,22.2651 L700.0933,22.2651 L700.0933,24.938 L704.8662,24.938 L704.8662,27.0962 L700.0933,27.0962 L700.0933,30.3418 L705.3643,30.3418 Z " fill="#000000"/><text fill="#000000" font-family="Verdana" font-size="14" lengthAdjust="spacing" textLength="37" x="719.25" y="31.5679">users</text><line style="stroke:#000000;stroke-width:1.0;" x1="611" x2="837" y1="40" y2="40"/><ellipse cx="621" cy="54.0073" fill="#FFFFFF" rx="3" ry="3" style="stroke:#000000;stroke-width:1.0;"/><text fill="#000000" font-family="Verdana" font-size="14" lengthAdjust="spacing" textLength="123" x="628" y="58.0752">id : SERIAL &#171;PK&#187;</text><line style="stroke:#000000;stroke-width:1.0;" x1="611" x2="837" y1="65.0146" y2="65.0146"/><ellipse cx="621" cy="79.022" fill="#FFFFFF" rx="3" ry="3" style="stroke:#000000;stroke-width:1.0;"/><text fill="#000000" font-family="Verdana" font-size="14" lengthAdjust="spacing" textLength="204" x="628" y="83.0898">discord_id : TEXT &#171;UNIQUE&#187;</text><ellipse cx="621" cy="96.0366" fill="#FFFFFF" rx="3" ry="3" style="stroke:#000000;stroke-width:1.0;"/><text fill="#000000" font-family="Verdana" font-size="14" lengthAdjust="spacing" textLength="122" x="628" y="100.1045">username : TEXT</text><ellipse cx="621" cy="113.0513" fill="#FFFFFF" rx="3" ry="3" style="stroke:#000000;stroke-width:1.0;"/><text fill="#000000" font-family="Verdana" font-size="14" lengthAdjust="spacing" textLength="121" x="628" y="117.1191">balance : BIGINT</text><ellipse cx="621" cy="130.0659" fill="#FFFFFF" rx="3" ry="3" style="stroke:#000000;stroke-width:1.0;"/><text fill="#000000" font-family="Verdana" font-size="14" lengthAdjust="spacing" textLength="176" x="628" y="134.1338">created_at : TIMESTAMP</text><ellipse cx="621" cy="147.0806" fill="#FFFFFF" rx="3" ry="3" style="stroke:#000000;stroke-width:1.0;"/><text fill="#000000" font-family="Verdana" font-size="14" lengthAdjust="spacing" textLength="182" x="628" y="151.1484">updated_at : TIMESTAMP</text></g><!--class balance_history--><g id="elem_balance_history"><rect codeLine="16" fill="#FFFFFF" height="197.1318" id="balance_history" rx="2.5" ry="2.5" style="stroke:#000000;stroke-width:1.0;" width="259" x="195.5" y="526.24"/><ellipse cx="266.25" cy="540.24" fill="#FFFFFF" rx="9" ry="9" style="stroke:#000000;stroke-width:1.0;"/><path d="M269.8643,546.74 L262.1445,546.74 L262.1445,534.3469 L269.8643,534.3469 L269.8643,536.5051 L264.5933,536.5051 L264.5933,539.178 L269.3662,539.178 L269.3662,541.3362 L264.5933,541.3362 L264.5933,544.5818 L269.8643,544.5818 Z " fill="#000000"/><text fill="#000000" font-family="Verdana" font-size="14" lengthAdjust="spacing" textLength="110" x="283.75" y="545.8079">balance_history</text><line style="stroke:#000000;stroke-width:1.0;" x1="196.5" x2="453.5" y1="554.24" y2="554.24"/><ellipse cx="206.5" cy="568.2473" fill="#FFFFFF" rx="3" ry="3" style="stroke:#000000;stroke-width:1.0;"/><text fill="#000000" font-family="Verdana" font-size="14" lengthAdjust="spacing" textLength="123" x="213.5" y="572.3152">id : SERIAL &#171;PK&#187;</text><line style="stroke:#000000;stroke-width:1.0;" x1="196.5" x2="453.5" y1="579.2546" y2="579.2546"/><ellipse cx="206.5" cy="593.262" fill="#FFFFFF" rx="3" ry="3" style="stroke:#000000;stroke-width:1.0;"/><text fill="#000000" font-family="Verdana" font-size="14" lengthAdjust="spacing" textLength="173" x="213.5" y="597.3298">user_id : INTEGER &#171;FK&#187;</text><ellipse cx="206.5" cy="610.2766" fill="#FFFFFF" rx="3" ry="3" style="stroke:#000000;stroke-width:1.0;"/><text fill="#000000" font-family="Verdana" font-size="14" lengthAdjust="spacing" textLength="122" x="213.5" y="614.3445">amount : BIGINT</text><ellipse cx="206.5" cy="627.2913" fill="#FFFFFF" rx="3" ry="3" style="stroke:#000000;stroke-width:1.0;"/><text fill="#000000" font-family="Verdana" font-size="14" lengthAdjust="spacing" textLength="171" x="213.5" y="631.3591">transaction_type : TEXT</text><ellipse cx="206.5" cy="644.3059" fill="#FFFFFF" rx="3" ry="3" style="stroke:#000000;stroke-width:1.0;"/><text fill="#000000" font-family="Verdana" font-size="14" lengthAdjust="spacing" textLength="130" x="213.5" y="648.3738">description : TEXT</text><ellipse cx="206.5" cy="661.3206" fill="#FFFFFF" rx="3" ry="3" style="stroke:#000000;stroke-width:1.0;"/><text fill="#000000" font-family="Verdana" font-size="14" lengthAdjust="spacing" textLength="166" x="213.5" y="665.3884">bet_id : INTEGER &#171;FK&#187;</text><ellipse cx="206.5" cy="678.3352" fill="#FFFFFF" rx="3" ry="3" style="stroke:#000000;stroke-width:1.0;"/><text fill="#000000" font-family="Verdana" font-size="14" lengthAdjust="spacing" textLength="185" x="213.5" y="682.4031">wager_id : INTEGER &#171;FK&#187;</text><ellipse cx="206.5" cy="695.3499" fill="#FFFFFF" rx="3" ry="3" style="stroke:#000000;stroke-width:1.0;"/><text fill="#000000" font-family="Verdana" font-size="14" lengthAdjust="spacing" textLength="235" x="213.5" y="699.4177">group_wager_id : INTEGER &#171;FK&#187;</text><ellipse cx="206.5" cy="712.3645" fill="#FFFFFF" rx="3" ry="3" style="stroke:#000000;stroke-width:1.0;"/><text fill="#000000" font-family="Verdana" font-size="14" lengthAdjust="spacing" textLength="176" x="213.5" y="716.4324">created_at : TIMESTAMP</text></g><!--class bets--><g id="elem_bets"><rect codeLine="30" fill="#FFFFFF" height="163.1025" id="bets" rx="2.5" ry="2.5" style="stroke:#000000;stroke-width:1.0;" width="200" x="12" y="260.61"/><ellipse cx="93.25" cy="274.61" fill="#FFFFFF" rx="9" ry="9" style="stroke:#000000;stroke-width:1.0;"/><path d="M96.8643,281.11 L89.1445,281.11 L89.1445,268.7169 L96.8643,268.7169 L96.8643,270.8751 L91.5933,270.8751 L91.5933,273.548 L96.3662,273.548 L96.3662,275.7062 L91.5933,275.7062 L91.5933,278.9518 L96.8643,278.9518 Z " fill="#000000"/><text fill="#000000" font-family="Verdana" font-size="14" lengthAdjust="spacing" textLength="30" x="110.75" y="280.1779">bets</text><line style="stroke:#000000;stroke-width:1.0;" x1="13" x2="211" y1="288.61" y2="288.61"/><ellipse cx="23" cy="302.6173" fill="#FFFFFF" rx="3" ry="3" style="stroke:#000000;stroke-width:1.0;"/><text fill="#000000" font-family="Verdana" font-size="14" lengthAdjust="spacing" textLength="123" x="30" y="306.6852">id : SERIAL &#171;PK&#187;</text><line style="stroke:#000000;stroke-width:1.0;" x1="13" x2="211" y1="313.6246" y2="313.6246"/><ellipse cx="23" cy="327.632" fill="#FFFFFF" rx="3" ry="3" style="stroke:#000000;stroke-width:1.0;"/><text fill="#000000" font-family="Verdana" font-size="14" lengthAdjust="spacing" textLength="173" x="30" y="331.6998">user_id : INTEGER &#171;FK&#187;</text><ellipse cx="23" cy="344.6466" fill="#FFFFFF" rx="3" ry="3" style="stroke:#000000;stroke-width:1.0;"/><text fill="#000000" font-family="Verdana" font-size="14" lengthAdjust="spacing" textLength="122" x="30" y="348.7145">amount : BIGINT</text><ellipse cx="23" cy="361.6613" fill="#FFFFFF" rx="3" ry="3" style="stroke:#000000;stroke-width:1.0;"/><text fill="#000000" font-family="Verdana" font-size="14" lengthAdjust="spacing" textLength="115" x="30" y="365.7291">odds : DECIMAL</text><ellipse cx="23" cy="378.6759" fill="#FFFFFF" rx="3" ry="3" style="stroke:#000000;stroke-width:1.0;"/><text fill="#000000" font-family="Verdana" font-size="14" lengthAdjust="spacing" textLength="113" x="30" y="382.7438">won : BOOLEAN</text><ellipse cx="23" cy="395.6906" fill="#FFFFFF" rx="3" ry="3" style="stroke:#000000;stroke-width:1.0;"/><text fill="#000000" font-family="Verdana" font-size="14" lengthAdjust="spacing" textLength="116" x="30" y="399.7584">payout : BIGINT</text><ellipse cx="23" cy="412.7052" fill="#FFFFFF" rx="3" ry="3" style="stroke:#000000;stroke-width:1.0;"/><text fill="#000000" font-family="Verdana" font-size="14" lengthAdjust="spacing" textLength="176" x="30" y="416.7731">created_at : TIMESTAMP</text></g><!--class wagers--><g id="elem_wagers"><rect codeLine="42" fill="#FFFFFF" height="197.1318" id="wagers" rx="2.5" ry="2.5" style="stroke:#000000;stroke-width:1.0;" width="216" x="368" y="243.6"/><ellipse cx="447.75" cy="257.6" fill="#FFFFFF" rx="9" ry="9" style="stroke:#000000;stroke-width:1.0;"/><path d="M451.3643,264.1 L443.6445,264.1 L443.6445,251.7069 L451.3643,251.7069 L451.3643,253.8651 L446.0933,253.8651 L446.0933,256.538 L450.8662,256.538 L450.8662,258.6962 L446.0933,258.6962 L446.0933,261.9418 L451.3643,261.9418 Z " fill="#000000"/><text fill="#000000" font-family="Verdana" font-size="14" lengthAdjust="spacing" textLength="49" x="465.25" y="263.1679">wagers</text><line style="stroke:#000000;stroke-width:1.0;" x1="369" x2="583" y1="271.6" y2="271.6"/><ellipse cx="379" cy="285.6073" fill="#FFFFFF" rx="3" ry="3" style="stroke:#000000;stroke-width:1.0;"/><text fill="#000000" font-family="Verdana" font-size="14" lengthAdjust="spacing" textLength="123" x="386" y="289.6752">id : SERIAL &#171;PK&#187;</text><line style="stroke:#000000;stroke-width:1.0;" x1="369" x2="583" y1="296.6146" y2="296.6146"/><ellipse cx="379" cy="310.622" fill="#FFFFFF" rx="3" ry="3" style="stroke:#000000;stroke-width:1.0;"/><text fill="#000000" font-family="Verdana" font-size="14" lengthAdjust="spacing" textLength="192" x="386" y="314.6898">creator_id : INTEGER &#171;FK&#187;</text><ellipse cx="379" cy="327.6366" fill="#FFFFFF" rx="3" ry="3" style="stroke:#000000;stroke-width:1.0;"/><text fill="#000000" font-family="Verdana" font-size="14" lengthAdjust="spacing" textLength="186" x="386" y="331.7045">target_id : INTEGER &#171;FK&#187;</text><ellipse cx="379" cy="344.6513" fill="#FFFFFF" rx="3" ry="3" style="stroke:#000000;stroke-width:1.0;"/><text fill="#000000" font-family="Verdana" font-size="14" lengthAdjust="spacing" textLength="122" x="386" y="348.7191">amount : BIGINT</text><ellipse cx="379" cy="361.6659" fill="#FFFFFF" rx="3" ry="3" style="stroke:#000000;stroke-width:1.0;"/><text fill="#000000" font-family="Verdana" font-size="14" lengthAdjust="spacing" textLength="117" x="386" y="365.7338">condition : TEXT</text><ellipse cx="379" cy="378.6806" fill="#FFFFFF" rx="3" ry="3" style="stroke:#000000;stroke-width:1.0;"/><text fill="#000000" font-family="Verdana" font-size="14" lengthAdjust="spacing" textLength="88" x="386" y="382.7484">state : TEXT</text><ellipse cx="379" cy="395.6952" fill="#FFFFFF" rx="3" ry="3" style="stroke:#000000;stroke-width:1.0;"/><text fill="#000000" font-family="Verdana" font-size="14" lengthAdjust="spacing" textLength="190" x="386" y="399.7631">winner_id : INTEGER &#171;FK&#187;</text><ellipse cx="379" cy="412.7099" fill="#FFFFFF" rx="3" ry="3" style="stroke:#000000;stroke-width:1.0;"/><text fill="#000000" font-family="Verdana" font-size="14" lengthAdjust="spacing" textLength="176" x="386" y="416.7777">created_at : TIMESTAMP</text><ellipse cx="379" cy="429.7245" fill="#FFFFFF" rx="3" ry="3" style="stroke:#000000;stroke-width:1.0;"/><text fill="#000000" font-family="Verdana" font-size="14" lengthAdjust="spacing" textLength="182" x="386" y="433.7924">updated_at : TIMESTAMP</text></g><!--class wager_votes--><g id="elem_wager_votes"><rect codeLine="56" fill="#FFFFFF" height="146.0879" id="wager_votes" rx="2.5" ry="2.5" style="stroke:#000000;stroke-width:1.0;" width="225" x="541.5" y="551.76"/><ellipse cx="606.25" cy="565.76" fill="#FFFFFF" rx="9" ry="9" style="stroke:#000000;stroke-width:1.0;"/><path d="M609.8643,572.26 L602.1445,572.26 L602.1445,559.8669 L609.8643,559.8669 L609.8643,562.0251 L604.5933,562.0251 L604.5933,564.698 L609.3662,564.698 L609.3662,566.8562 L604.5933,566.8562 L604.5933,570.1018 L609.8643,570.1018 Z " fill="#000000"/><text fill="#000000" font-family="Verdana" font-size="14" lengthAdjust="spacing" textLength="88" x="623.75" y="571.3279">wager_votes</text><line style="stroke:#000000;stroke-width:1.0;" x1="542.5" x2="765.5" y1="579.76" y2="579.76"/><ellipse cx="552.5" cy="593.7673" fill="#FFFFFF" rx="3" ry="3" style="stroke:#000000;stroke-width:1.0;"/><text fill="#000000" font-family="Verdana" font-size="14" lengthAdjust="spacing" textLength="123" x="559.5" y="597.8352">id : SERIAL &#171;PK&#187;</text><line style="stroke:#000000;stroke-width:1.0;" x1="542.5" x2="765.5" y1="604.7746" y2="604.7746"/><ellipse cx="552.5" cy="618.782" fill="#FFFFFF" rx="3" ry="3" style="stroke:#000000;stroke-width:1.0;"/><text fill="#000000" font-family="Verdana" font-size="14" lengthAdjust="spacing" textLength="185" x="559.5" y="622.8498">wager_id : INTEGER &#171;FK&#187;</text><ellipse cx="552.5" cy="635.7966" fill="#FFFFFF" rx="3" ry="3" style="stroke:#000000;stroke-width:1.0;"/><text fill="#000000" font-family="Verdana" font-size="14" lengthAdjust="spacing" textLength="179" x="559.5" y="639.8645">voter_id : INTEGER &#171;FK&#187;</text><ellipse cx="552.5" cy="652.8113" fill="#FFFFFF" rx="3" ry="3" style="stroke:#000000;stroke-width:1.0;"/><text fill="#000000" font-family="Verdana" font-size="14" lengthAdjust="spacing" textLength="201" x="559.5" y="656.8791">vote_for_id : INTEGER &#171;FK&#187;</text><ellipse cx="552.5" cy="669.8259" fill="#FFFFFF" rx="3" ry="3" style="stroke:#000000;stroke-width:1.0;"/><text fill="#000000" font-family="Verdana" font-size="14" lengthAdjust="spacing" textLength="176" x="559.5" y="673.8938">created_at : TIMESTAMP</text><ellipse cx="552.5" cy="686.8406" fill="#FFFFFF" rx="3" ry="3" style="stroke:#000000;stroke-width:1.0;"/><text fill="#000000" font-family="Verdana" font-size="14" lengthAdjust="spacing" textLength="182" x="559.5" y="690.9084">updated_at : TIMESTAMP</text></g><!--class group_wagers--><g id="elem_group_wagers"><rect codeLine="67" fill="#FFFFFF" height="214.1465" id="group_wagers" rx="2.5" ry="2.5" style="stroke:#000000;stroke-width:1.0;" width="226" x="1015" y="235.09"/><ellipse cx="1074.75" cy="249.09" fill="#FFFFFF" rx="9" ry="9" style="stroke:#000000;stroke-width:1.0;"/><path d="M1078.3643,255.59 L1070.6445,255.59 L1070.6445,243.1969 L1078.3643,243.1969 L1078.3643,245.3551 L1073.0933,245.3551 L1073.0933,248.028 L1077.8662,248.028 L1077.8662,250.1862 L1073.0933,250.1862 L1073.0933,253.4318 L1078.3643,253.4318 Z " fill="#000000"/><text fill="#000000" font-family="Verdana" font-size="14" lengthAdjust="spacing" textLength="99" x="1092.25" y="254.6579">group_wagers</text><line style="stroke:#000000;stroke-width:1.0;" x1="1016" x2="1240" y1="263.09" y2="263.09"/><ellipse cx="1026" cy="277.0973" fill="#FFFFFF" rx="3" ry="3" style="stroke:#000000;stroke-width:1.0;"/><text fill="#000000" font-family="Verdana" font-size="14" lengthAdjust="spacing" textLength="123" x="1033" y="281.1652">id : SERIAL &#171;PK&#187;</text><line style="stroke:#000000;stroke-width:1.0;" x1="1016" x2="1240" y1="288.1046" y2="288.1046"/><ellipse cx="1026" cy="302.112" fill="#FFFFFF" rx="3" ry="3" style="stroke:#000000;stroke-width:1.0;"/><text fill="#000000" font-family="Verdana" font-size="14" lengthAdjust="spacing" textLength="192" x="1033" y="306.1798">creator_id : INTEGER &#171;FK&#187;</text><ellipse cx="1026" cy="319.1266" fill="#FFFFFF" rx="3" ry="3" style="stroke:#000000;stroke-width:1.0;"/><text fill="#000000" font-family="Verdana" font-size="14" lengthAdjust="spacing" textLength="117" x="1033" y="323.1945">condition : TEXT</text><ellipse cx="1026" cy="336.1413" fill="#FFFFFF" rx="3" ry="3" style="stroke:#000000;stroke-width:1.0;"/><text fill="#000000" font-family="Verdana" font-size="14" lengthAdjust="spacing" textLength="88" x="1033" y="340.2091">state : TEXT</text><ellipse cx="1026" cy="353.1559" fill="#FFFFFF" rx="3" ry="3" style="stroke:#000000;stroke-width:1.0;"/><text fill="#000000" font-family="Verdana" font-size="14" lengthAdjust="spacing" textLength="199" x="1033" y="357.2238">min_participants : INTEGER</text><ellipse cx="1026" cy="370.1706" fill="#FFFFFF" rx="3" ry="3" style="stroke:#000000;stroke-width:1.0;"/><text fill="#000000" font-family="Verdana" font-size="14" lengthAdjust="spacing" textLength="202" x="1033" y="374.2384">max_participants : INTEGER</text><ellipse cx="1026" cy="387.1852" fill="#FFFFFF" rx="3" ry="3" style="stroke:#000000;stroke-width:1.0;"/><text fill="#000000" font-family="Verdana" font-size="14" lengthAdjust="spacing" textLength="168" x="1033" y="391.2531">entry_amount : BIGINT</text><ellipse cx="1026" cy="404.1999" fill="#FFFFFF" rx="3" ry="3" style="stroke:#000000;stroke-width:1.0;"/><text fill="#000000" font-family="Verdana" font-size="14" lengthAdjust="spacing" textLength="190" x="1033" y="408.2677">winner_id : INTEGER &#171;FK&#187;</text><ellipse cx="1026" cy="421.2145" fill="#FFFFFF" rx="3" ry="3" style="stroke:#000000;stroke-width:1.0;"/><text fill="#000000" font-family="Verdana" font-size="14" lengthAdjust="spacing" textLength="176" x="1033" y="425.2824">created_at : TIMESTAMP</text><ellipse cx="1026" cy="438.2292" fill="#FFFFFF" rx="3" ry="3" style="stroke:#000000;stroke-width:1.0;"/><text fill="#000000" font-family="Verdana" font-size="14" lengthAdjust="spacing" textLength="182" x="1033" y="442.297">updated_at : TIMESTAMP</text></g><!--class group_wager_participants--><g id="elem_group_wager_participants"><rect codeLine="82" fill="#FFFFFF" height="112.0586" id="group_wager_participants" rx="2.5" ry="2.5" style="stroke:#000000;stroke-width:1.0;" width="259" x="897.5" y="568.77"/><ellipse cx="931.65" cy="582.77" fill="#FFFFFF" rx="9" ry="9" style="stroke:#000000;stroke-width:1.0;"/><path d="M935.2643,589.27 L927.5445,589.27 L927.5445,576.8769 L935.2643,576.8769 L935.2643,579.0351 L929.9933,579.0351 L929.9933,581.708 L934.7662,581.708 L934.7662,583.8662 L929.9933,583.8662 L929.9933,587.1118 L935.2643,587.1118 Z " fill="#000000"/><text fill="#000000" font-family="Verdana" font-size="14" lengthAdjust="spacing" textLength="184" x="948.35" y="588.3379">group_wager_participants</text><line style="stroke:#000000;stroke-width:1.0;" x1="898.5" x2="1155.5" y1="596.77" y2="596.77"/><ellipse cx="908.5" cy="610.7773" fill="#FFFFFF" rx="3" ry="3" style="stroke:#000000;stroke-width:1.0;"/><text fill="#000000" font-family="Verdana" font-size="14" lengthAdjust="spacing" textLength="123" x="915.5" y="614.8452">id : SERIAL &#171;PK&#187;</text><line style="stroke:#000000;stroke-width:1.0;" x1="898.5" x2="1155.5" y1="621.7846" y2="621.7846"/><ellipse cx="908.5" cy="635.792" fill="#FFFFFF" rx="3" ry="3" style="stroke:#000000;stroke-width:1.0;"/><text fill="#000000" font-family="Verdana" font-size="14" lengthAdjust="spacing" textLength="235" x="915.5" y="639.8598">group_wager_id : INTEGER &#171;FK&#187;</text><ellipse cx="908.5" cy="652.8066" fill="#FFFFFF" rx="3" ry="3" style="stroke:#000000;stroke-width:1.0;"/><text fill="#000000" font-family="Verdana" font-size="14" lengthAdjust="spacing" textLength="173" x="915.5" y="656.8745">user_id : INTEGER &#171;FK&#187;</text><ellipse cx="908.5" cy="669.8213" fill="#FFFFFF" rx="3" ry="3" style="stroke:#000000;stroke-width:1.0;"/><text fill="#000000" font-family="Verdana" font-size="14" lengthAdjust="spacing" textLength="167" x="915.5" y="673.8891">joined_at : TIMESTAMP</text></g><!--class group_wager_votes--><g id="elem_group_wager_votes"><rect codeLine="91" fill="#FFFFFF" height="146.0879" id="group_wager_votes" rx="2.5" ry="2.5" style="stroke:#000000;stroke-width:1.0;" width="259" x="1283.5" y="551.76"/><ellipse cx="1340.25" cy="565.76" fill="#FFFFFF" rx="9" ry="9" style="stroke:#000000;stroke-width:1.0;"/><path d="M1343.8643,572.26 L1336.1445,572.26 L1336.1445,559.8669 L1343.8643,559.8669 L1343.8643,562.0251 L1338.5933,562.0251 L1338.5933,564.698 L1343.3662,564.698 L1343.3662,566.8562 L1338.5933,566.8562 L1338.5933,570.1018 L1343.8643,570.1018 Z " fill="#000000"/><text fill="#000000" font-family="Verdana" font-size="14" lengthAdjust="spacing" textLength="138" x="1357.75" y="571.3279">group_wager_votes</text><line style="stroke:#000000;stroke-width:1.0;" x1="1284.5" x2="1541.5" y1="579.76" y2="579.76"/><ellipse cx="1294.5" cy="593.7673" fill="#FFFFFF" rx="3" ry="3" style="stroke:#000000;stroke-width:1.0;"/><text fill="#000000" font-family="Verdana" font-size="14" lengthAdjust="spacing" textLength="123" x="1301.5" y="597.8352">id : SERIAL &#171;PK&#187;</text><line style="stroke:#000000;stroke-width:1.0;" x1="1284.5" x2="1541.5" y1="604.7746" y2="604.7746"/><ellipse cx="1294.5" cy="618.782" fill="#FFFFFF" rx="3" ry="3" style="stroke:#000000;stroke-width:1.0;"/><text fill="#000000" font-family="Verdana" font-size="14" lengthAdjust="spacing" textLength="235" x="1301.5" y="622.8498">group_wager_id : INTEGER &#171;FK&#187;</text><ellipse cx="1294.5" cy="635.7966" fill="#FFFFFF" rx="3" ry="3" style="stroke:#000000;stroke-width:1.0;"/><text fill="#000000" font-family="Verdana" font-size="14" lengthAdjust="spacing" textLength="179" x="1301.5" y="639.8645">voter_id : INTEGER &#171;FK&#187;</text><ellipse cx="1294.5" cy="652.8113" fill="#FFFFFF" rx="3" ry="3" style="stroke:#000000;stroke-width:1.0;"/><text fill="#000000" font-family="Verdana" font-size="14" lengthAdjust="spacing" textLength="201" x="1301.5" y="656.8791">vote_for_id : INTEGER &#171;FK&#187;</text><ellipse cx="1294.5" cy="669.8259" fill="#FFFFFF" rx="3" ry="3" style="stroke:#000000;stroke-width:1.0;"/><text fill="#000000" font-family="Verdana" font-size="14" lengthAdjust="spacing" textLength="176" x="1301.5" y="673.8938">created_at : TIMESTAMP</text><ellipse cx="1294.5" cy="686.8406" fill="#FFFFFF" rx="3" ry="3" style="stroke:#000000;stroke-width:1.0;"/><text fill="#000000" font-family="Verdana" font-size="14" lengthAdjust="spacing" textLength="182" x="1301.5" y="690.9084">updated_at : TIMESTAMP</text></g><!--class interest_runs--><g id="elem_interest_runs"><rect codeLine="102" fill="#FFFFFF" height="146.0879" id="interest_runs" rx="2.5" ry="2.5" style="stroke:#000000;stroke-width:1.0;" width="222" x="873" y="12"/><ellipse cx="933.25" cy="26" fill="#FFFFFF" rx="9" ry="9" style="stroke:#000000;stroke-width:1.0;"/><path d="M936.8643,32.5 L929.1445,32.5 L929.1445,20.1069 L936.8643,20.1069 L936.8643,22.2651 L931.5933,22.2651 L931.5933,24.938 L936.3662,24.938 L936.3662,27.0962 L931.5933,27.0962 L931.5933,30.3418 L936.8643,30.3418 Z " fill="#000000"/><text fill="#000000" font-family="Verdana" font-size="14" lengthAdjust="spacing" textLength="94" x="950.75" y="31.5679">interest_runs</text><line style="stroke:#000000;stroke-width:1.0;" x1="874" x2="1094" y1="40" y2="40"/><ellipse cx="884" cy="54.0073" fill="#FFFFFF" rx="3" ry="3" style="stroke:#000000;stroke-width:1.0;"/><text fill="#000000" font-family="Verdana" font-size="14" lengthAdjust="spacing" textLength="123" x="891" y="58.0752">id : SERIAL &#171;PK&#187;</text><line style="stroke:#000000;stroke-width:1.0;" x1="874" x2="1094" y1="65.0146" y2="65.0146"/><ellipse cx="884" cy="79.022" fill="#FFFFFF" rx="3" ry="3" style="stroke:#000000;stroke-width:1.0;"/><text fill="#000000" font-family="Verdana" font-size="14" lengthAdjust="spacing" textLength="198" x="891" y="83.0898">run_date : DATE &#171;UNIQUE&#187;</text><ellipse cx="884" cy="96.0366" fill="#FFFFFF" rx="3" ry="3" style="stroke:#000000;stroke-width:1.0;"/><text fill="#000000" font-family="Verdana" font-size="14" lengthAdjust="spacing" textLength="173" x="891" y="100.1045">interest_rate : DECIMAL</text><ellipse cx="884" cy="113.0513" fill="#FFFFFF" rx="3" ry="3" style="stroke:#000000;stroke-width:1.0;"/><text fill="#000000" font-family="Verdana" font-size="14" lengthAdjust="spacing" textLength="186" x="891" y="117.1191">total_distributed : BIGINT</text><ellipse cx="884" cy="130.0659" fill="#FFFFFF" rx="3" ry="3" style="stroke:#000000;stroke-width:1.0;"/><text fill="#000000" font-family="Verdana" font-size="14" lengthAdjust="spacing" textLength="182" x="891" y="134.1338">users_affected : INTEGER</text><ellipse cx="884" cy="147.0806" fill="#FFFFFF" rx="3" ry="3" style="stroke:#000000;stroke-width:1.0;"/><text fill="#000000" font-family="Verdana" font-size="14" lengthAdjust="spacing" textLength="176" x="891" y="151.1484">created_at : TIMESTAMP</text></g><!--link users to balance_history--><g id="link_users_balance_history"><path codeLine="113" d="M601.8678,102.8342 C523.9278,116.9342 428.37,141.54 347,188.09 C321.08,202.92 310.57,207.57 299,235.09 C259.88,328.15 270.9851,427.3229 290.5751,508.4529 " fill="none" id="users-balance_history" style="stroke:#000000;stroke-width:1.0;"/><line style="stroke:#000000;stroke-width:1.0;" x1="605.0918" x2="606.516" y1="98.186" y2="106.0582"/><line style="stroke:#000000;stroke-width:1.0;" x1="602.1397" x2="603.5639" y1="98.72" y2="106.5922"/><line style="stroke:#000000;stroke-width:1.0;" x1="601.8678" x2="609.74" y1="102.8342" y2="101.41"/><line style="stroke:#000000;stroke-width:1.0;" x1="292.9223" x2="300.6324" y1="518.1735" y2="524.5417"/><line style="stroke:#000000;stroke-width:1.0;" x1="292.9223" x2="288.9676" y1="518.1735" y2="527.3583"/><line style="stroke:#000000;stroke-width:1.0;" x1="292.9223" x2="294.8" y1="518.1735" y2="525.95"/><ellipse cx="291.5139" cy="512.3411" fill="none" rx="4" ry="4" style="stroke:#000000;stroke-width:1.0;"/><text fill="#000000" font-family="Verdana" font-size="13" lengthAdjust="spacing" textLength="49" x="300" y="347.7298">user_id</text></g><!--link users to bets--><g id="link_users_bets"><path codeLine="114" d="M601.6531,98.6199 C469.2231,113.9499 269.05,143.38 205,188.09 C179.38,205.98 168.1937,217.6367 153.5437,244.3567 " fill="none" id="users-bets" style="stroke:#000000;stroke-width:1.0;"/><line style="stroke:#000000;stroke-width:1.0;" x1="605.1666" x2="606.0865" y1="94.1865" y2="102.1334"/><line style="stroke:#000000;stroke-width:1.0;" x1="602.1865" x2="603.1064" y1="94.5315" y2="102.4784"/><line style="stroke:#000000;stroke-width:1.0;" x1="601.6531" x2="609.6" y1="98.6199" y2="97.7"/><line style="stroke:#000000;stroke-width:1.0;" x1="148.7361" x2="150.1511" y1="253.1252" y2="263.0246"/><line style="stroke:#000000;stroke-width:1.0;" x1="148.7361" x2="139.6289" y1="253.1252" y2="257.2554"/><line style="stroke:#000000;stroke-width:1.0;" x1="148.7361" x2="144.89" y1="253.1252" y2="260.14"/><ellipse cx="151.6206" cy="247.8641" fill="none" rx="4" ry="4" style="stroke:#000000;stroke-width:1.0;"/><text fill="#000000" font-family="Verdana" font-size="13" lengthAdjust="spacing" textLength="49" x="206" y="202.1598">user_id</text></g><!--link users to wagers--><g id="link_users_wagers"><path codeLine="115" d="M601.9625,104.4945 C507.8525,121.1545 393.01,148.42 363,188.09 C346.66,209.69 342.064,218.4094 357.394,240.3294 " fill="none" id="users-wagers" style="stroke:#000000;stroke-width:1.0;"/><line style="stroke:#000000;stroke-width:1.0;" x1="605.204" x2="606.5985" y1="99.8585" y2="107.736"/><line style="stroke:#000000;stroke-width:1.0;" x1="602.2499" x2="603.6444" y1="100.3815" y2="108.259"/><line style="stroke:#000000;stroke-width:1.0;" x1="601.9625" x2="609.84" y1="104.4945" y2="103.1"/><line style="stroke:#000000;stroke-width:1.0;" x1="363.1251" x2="372.6269" y1="248.5242" y2="251.6413"/><line style="stroke:#000000;stroke-width:1.0;" x1="363.1251" x2="362.7931" y1="248.5242" y2="258.5187"/><line style="stroke:#000000;stroke-width:1.0;" x1="363.1251" x2="367.71" y1="248.5242" y2="255.08"/><ellipse cx="359.6864" cy="243.6073" fill="none" rx="4" ry="4" style="stroke:#000000;stroke-width:1.0;"/><text fill="#000000" font-family="Verdana" font-size="13" lengthAdjust="spacing" textLength="68" x="364" y="202.1598">creator_id</text></g><!--link users to wagers--><g id="link_users_wagers"><path codeLine="116" d="M601.8258,105.3693 C551.0858,119.3093 503.73,142.43 473,188.09 C462.09,204.3 458.3703,205.8325 457.6403,225.4225 " fill="none" id="users-wagers-1" style="stroke:#000000;stroke-width:1.0;"/><line style="stroke:#000000;stroke-width:1.0;" x1="604.6232" x2="606.7426" y1="100.4526" y2="108.1668"/><line style="stroke:#000000;stroke-width:1.0;" x1="601.7304" x2="603.8498" y1="101.2473" y2="108.9615"/><line style="stroke:#000000;stroke-width:1.0;" x1="601.8258" x2="609.54" y1="105.3693" y2="103.25"/><line style="stroke:#000000;stroke-width:1.0;" x1="457.2679" x2="462.9658" y1="235.4155" y2="243.6334"/><line style="stroke:#000000;stroke-width:1.0;" x1="457.2679" x2="450.9742" y1="235.4155" y2="243.1866"/><line style="stroke:#000000;stroke-width:1.0;" x1="457.2679" x2="456.97" y1="235.4155" y2="243.41"/><ellipse cx="457.4913" cy="229.4197" fill="none" rx="4" ry="4" style="stroke:#000000;stroke-width:1.0;"/><text fill="#000000" font-family="Verdana" font-size="13" lengthAdjust="spacing" textLength="60" x="474" y="202.1598">target_id</text></g><!--link users to wagers--><g id="link_users_wagers"><path codeLine="117" d="M603.2682,162.2737 C591.0182,171.9337 585.5,177.31 575,188.09 C558.99,204.53 554.1956,209.0209 541.0856,228.4009 " fill="none" id="users-wagers-2" style="stroke:#000000;stroke-width:1.0;"/><line style="stroke:#000000;stroke-width:1.0;" x1="603.9323" x2="608.8859" y1="156.6559" y2="162.9377"/><line style="stroke:#000000;stroke-width:1.0;" x1="601.5766" x2="606.5302" y1="158.5135" y2="164.7954"/><line style="stroke:#000000;stroke-width:1.0;" x1="603.2682" x2="609.55" y1="162.2737" y2="157.32"/><line style="stroke:#000000;stroke-width:1.0;" x1="535.4825" x2="535.9697" y1="236.6837" y2="246.6719"/><line style="stroke:#000000;stroke-width:1.0;" x1="535.4825" x2="526.0303" y1="236.6837" y2="239.9481"/><line style="stroke:#000000;stroke-width:1.0;" x1="535.4825" x2="531" y1="236.6837" y2="243.31"/><ellipse cx="538.8443" cy="231.714" fill="none" rx="4" ry="4" style="stroke:#000000;stroke-width:1.0;"/><text fill="#000000" font-family="Verdana" font-size="13" lengthAdjust="spacing" textLength="65" x="576" y="202.1598">winner_id</text></g><!--link users to wager_votes--><g id="link_users_wager_votes"><path codeLine="118" d="M697.4896,166.1481 C690.3196,190.2581 685.48,209.77 681,235.09 C661.67,344.34 656.3878,455.1436 654.8278,533.6136 " fill="none" id="users-wager_votes" style="stroke:#000000;stroke-width:1.0;"/><line style="stroke:#000000;stroke-width:1.0;" x1="694.7958" x2="702.4639" y1="161.1739" y2="163.4542"/><line style="stroke:#000000;stroke-width:1.0;" x1="693.9406" x2="701.6087" y1="164.0494" y2="166.3298"/><line style="stroke:#000000;stroke-width:1.0;" x1="697.4896" x2="699.77" y1="166.1481" y2="158.48"/><line style="stroke:#000000;stroke-width:1.0;" x1="654.629" x2="660.4688" y1="543.6116" y2="551.7293"/><line style="stroke:#000000;stroke-width:1.0;" x1="654.629" x2="648.4712" y1="543.6116" y2="551.4907"/><line style="stroke:#000000;stroke-width:1.0;" x1="654.629" x2="654.47" y1="543.6116" y2="551.61"/><ellipse cx="654.7483" cy="537.6128" fill="none" rx="4" ry="4" style="stroke:#000000;stroke-width:1.0;"/><text fill="#000000" font-family="Verdana" font-size="13" lengthAdjust="spacing" textLength="55" x="682" y="347.7298">voter_id</text></g><!--link users to wager_votes--><g id="link_users_wager_votes"><path codeLine="119" d="M740.7526,166.3496 C753.7526,240.4396 765.48,350.51 742,449.24 C733.56,484.73 725.3773,505.4351 708.6473,535.7951 " fill="none" id="users-wager_votes-1" style="stroke:#000000;stroke-width:1.0;"/><line style="stroke:#000000;stroke-width:1.0;" x1="736.1215" x2="744.0011" y1="163.1011" y2="161.7185"/><line style="stroke:#000000;stroke-width:1.0;" x1="736.6399" x2="744.5196" y1="166.056" y2="164.6734"/><line style="stroke:#000000;stroke-width:1.0;" x1="740.7526" x2="739.37" y1="166.3496" y2="158.47"/><line style="stroke:#000000;stroke-width:1.0;" x1="703.821" x2="705.215" y1="544.5534" y2="554.4558"/><line style="stroke:#000000;stroke-width:1.0;" x1="703.821" x2="694.705" y1="544.5534" y2="548.6642"/><line style="stroke:#000000;stroke-width:1.0;" x1="703.821" x2="699.96" y1="544.5534" y2="551.56"/><ellipse cx="706.7168" cy="539.2984" fill="none" rx="4" ry="4" style="stroke:#000000;stroke-width:1.0;"/><text fill="#000000" font-family="Verdana" font-size="13" lengthAdjust="spacing" textLength="76" x="755.96" y="347.7298">vote_for_id</text></g><!--link users to group_wagers--><g id="link_users_group_wagers"><path codeLine="120" d="M845.7539,153.7136 C851.6239,156.4436 850.22,155.67 856,158.09 C898.4,175.86 914.86,165.68 955,188.09 C978.11,201 986.9081,205.9738 1007.8681,223.2438 " fill="none" id="users-group_wagers" style="stroke:#000000;stroke-width:1.0;"/><line style="stroke:#000000;stroke-width:1.0;" x1="840.4401" x2="843.8137" y1="155.6537" y2="148.3999"/><line style="stroke:#000000;stroke-width:1.0;" x1="843.1603" x2="846.5339" y1="156.9188" y2="149.665"/><line style="stroke:#000000;stroke-width:1.0;" x1="845.7539" x2="838.5" y1="153.7136" y2="150.34"/><line style="stroke:#000000;stroke-width:1.0;" x1="1015.5858" x2="1025.5754" y1="229.6028" y2="230.0594"/><line style="stroke:#000000;stroke-width:1.0;" x1="1015.5858" x2="1017.9446" y1="229.6028" y2="239.3206"/><line style="stroke:#000000;stroke-width:1.0;" x1="1015.5858" x2="1021.76" y1="229.6028" y2="234.69"/><ellipse cx="1010.9552" cy="225.7874" fill="none" rx="4" ry="4" style="stroke:#000000;stroke-width:1.0;"/><text fill="#000000" font-family="Verdana" font-size="13" lengthAdjust="spacing" textLength="68" x="982.63" y="202.1598">creator_id</text></g><!--link users to group_wagers--><g id="link_users_group_wagers"><path codeLine="121" d="M845.8802,154.5848 C851.7302,156.9648 850.18,156.15 856,158.09 C942.91,187.16 987.01,132.68 1060,188.09 C1075.98,200.22 1079.9011,201.0144 1089.3511,218.9544 " fill="none" id="users-group_wagers-1" style="stroke:#000000;stroke-width:1.0;"/><line style="stroke:#000000;stroke-width:1.0;" x1="840.6677" x2="843.6825" y1="156.7825" y2="149.3723"/><line style="stroke:#000000;stroke-width:1.0;" x1="843.4466" x2="846.4613" y1="157.913" y2="150.5028"/><line style="stroke:#000000;stroke-width:1.0;" x1="845.8802" x2="838.47" y1="154.5848" y2="151.57"/><line style="stroke:#000000;stroke-width:1.0;" x1="1094.0116" x2="1103.0485" y1="227.8019" y2="232.0837"/><line style="stroke:#000000;stroke-width:1.0;" x1="1094.0116" x2="1092.4315" y1="227.8019" y2="237.6763"/><line style="stroke:#000000;stroke-width:1.0;" x1="1094.0116" x2="1097.74" y1="227.8019" y2="234.88"/><ellipse cx="1091.2153" cy="222.4934" fill="none" rx="4" ry="4" style="stroke:#000000;stroke-width:1.0;"/><text fill="#000000" font-family="Verdana" font-size="13" lengthAdjust="spacing" textLength="65" x="1077.31" y="202.1598">winner_id</text></g><!--link users to group_wager_participants--><g id="link_users_group_wager_participants"><path codeLine="122" d="M792.5175,164.825 C811.2075,188.265 825.73,208.77 841,235.09 C903.84,343.45 889.95,384.72 947,496.24 C959.5,520.67 965.46,531.3993 979.63,553.3893 " fill="none" id="users-group_wager_participants" style="stroke:#000000;stroke-width:1.0;"/><line style="stroke:#000000;stroke-width:1.0;" x1="786.8962" x2="793.1512" y1="164.1912" y2="159.2038"/><line style="stroke:#000000;stroke-width:1.0;" x1="788.7665" x2="795.0215" y1="166.5369" y2="161.5494"/><line style="stroke:#000000;stroke-width:1.0;" x1="792.5175" x2="787.53" y1="164.825" y2="158.57"/><line style="stroke:#000000;stroke-width:1.0;" x1="985.0467" x2="994.4236" y1="561.7952" y2="565.27"/><line style="stroke:#000000;stroke-width:1.0;" x1="985.0467" x2="984.3364" y1="561.7952" y2="571.77"/><line style="stroke:#000000;stroke-width:1.0;" x1="985.0467" x2="989.38" y1="561.7952" y2="568.52"/><ellipse cx="981.7967" cy="556.7517" fill="none" rx="4" ry="4" style="stroke:#000000;stroke-width:1.0;"/><text fill="#000000" font-family="Verdana" font-size="13" lengthAdjust="spacing" textLength="49" x="925.97" y="347.7298">user_id</text></g><!--link users to group_wager_votes--><g id="link_users_group_wager_votes"><path codeLine="123" d="M845.8186,154.8085 C851.6886,157.1085 850.14,156.28 856,158.09 C1030.18,212.06 1124.69,111.76 1259,235.09 C1349.86,318.52 1351.81,362.28 1391,479.24 C1398.66,502.11 1401.1873,510.082 1404.4473,533.492 " fill="none" id="users-group_wager_votes" style="stroke:#000000;stroke-width:1.0;"/><line style="stroke:#000000;stroke-width:1.0;" x1="840.635" x2="843.5536" y1="157.0736" y2="149.625"/><line style="stroke:#000000;stroke-width:1.0;" x1="843.4283" x2="846.3468" y1="158.168" y2="150.7194"/><line style="stroke:#000000;stroke-width:1.0;" x1="845.8186" x2="838.37" y1="154.8085" y2="151.89"/><line style="stroke:#000000;stroke-width:1.0;" x1="1405.8266" x2="1412.8727" y1="543.3965" y2="550.4924"/><line style="stroke:#000000;stroke-width:1.0;" x1="1405.8266" x2="1400.9873" y1="543.3965" y2="552.1476"/><line style="stroke:#000000;stroke-width:1.0;" x1="1405.8266" x2="1406.93" y1="543.3965" y2="551.32"/><ellipse cx="1404.999" cy="537.4538" fill="none" rx="4" ry="4" style="stroke:#000000;stroke-width:1.0;"/><text fill="#000000" font-family="Verdana" font-size="13" lengthAdjust="spacing" textLength="55" x="1381.23" y="347.7298">voter_id</text></g><!--link users to group_wager_votes--><g id="link_users_group_wager_votes"><path codeLine="124" d="M845.7891,154.9059 C851.6791,157.1659 850.12,156.34 856,158.09 C982.5,195.8 1362.27,132.23 1445,235.09 C1516.93,324.53 1486.1481,449.1811 1452.6981,534.5311 " fill="none" id="users-group_wager_votes-1" style="stroke:#000000;stroke-width:1.0;"/><line style="stroke:#000000;stroke-width:1.0;" x1="840.6216" x2="843.4875" y1="157.2075" y2="149.7384"/><line style="stroke:#000000;stroke-width:1.0;" x1="843.4225" x2="846.2884" y1="158.2822" y2="150.8131"/><line style="stroke:#000000;stroke-width:1.0;" x1="845.7891" x2="838.32" y1="154.9059" y2="152.04"/><line style="stroke:#000000;stroke-width:1.0;" x1="1449.0491" x2="1451.7163" y1="543.8416" y2="553.4794"/><line style="stroke:#000000;stroke-width:1.0;" x1="1449.0491" x2="1440.5437" y1="543.8416" y2="549.1006"/><line style="stroke:#000000;stroke-width:1.0;" x1="1449.0491" x2="1446.13" y1="543.8416" y2="551.29"/><ellipse cx="1451.2385" cy="538.2553" fill="none" rx="4" ry="4" style="stroke:#000000;stroke-width:1.0;"/><text fill="#000000" font-family="Verdana" font-size="13" lengthAdjust="spacing" textLength="76" x="1487.18" y="347.7298">vote_for_id</text></g><!--link bets to balance_history--><g id="link_bets_balance_history"><path codeLine="126" d="M166.7887,430.7387 C182.3587,454.4687 195.62,473.46 213,496.24 C220.51,506.08 217.0769,502.2669 225.3069,512.1869 " fill="none" id="bets-balance_history" style="stroke:#000000;stroke-width:1.0;"/><line style="stroke:#000000;stroke-width:1.0;" x1="161.25" x2="167.9387" y1="429.5887" y2="425.2"/><line style="stroke:#000000;stroke-width:1.0;" x1="162.8957" x2="169.5845" y1="432.097" y2="427.7083"/><line style="stroke:#000000;stroke-width:1.0;" x1="166.7887" x2="162.4" y1="430.7387" y2="424.05"/><line style="stroke:#000000;stroke-width:1.0;" x1="231.692" x2="241.4177" y1="519.8831" y2="522.209"/><line style="stroke:#000000;stroke-width:1.0;" x1="231.692" x2="232.1823" y1="519.8831" y2="529.871"/><line style="stroke:#000000;stroke-width:1.0;" x1="231.692" x2="236.8" y1="519.8831" y2="526.04"/><ellipse cx="227.8609" cy="515.2653" fill="none" rx="4" ry="4" style="stroke:#000000;stroke-width:1.0;"/><text fill="#000000" font-family="Verdana" font-size="13" lengthAdjust="spacing" textLength="41" x="214" y="493.3098">bet_id</text></g><!--link wagers to balance_history--><g id="link_wagers_balance_history"><path codeLine="127" d="M398.4038,447.6164 C390.2438,460.2264 386.79,466.48 380,479.24 C372.18,493.94 371.7403,493.3322 365.2303,509.2322 " fill="none" id="wagers-balance_history" style="stroke:#000000;stroke-width:1.0;"/><line style="stroke:#000000;stroke-width:1.0;" x1="397.2187" x2="403.9351" y1="442.0851" y2="446.4313"/><line style="stroke:#000000;stroke-width:1.0;" x1="395.5888" x2="402.3053" y1="444.6038" y2="448.95"/><line style="stroke:#000000;stroke-width:1.0;" x1="398.4038" x2="402.75" y1="447.6164" y2="440.9"/><line style="stroke:#000000;stroke-width:1.0;" x1="361.4412" x2="363.9626" y1="518.4865" y2="528.1634"/><line style="stroke:#000000;stroke-width:1.0;" x1="361.4412" x2="352.8574" y1="518.4865" y2="523.6166"/><line style="stroke:#000000;stroke-width:1.0;" x1="361.4412" x2="358.41" y1="518.4865" y2="525.89"/><ellipse cx="363.7147" cy="512.9339" fill="none" rx="4" ry="4" style="stroke:#000000;stroke-width:1.0;"/><text fill="#000000" font-family="Verdana" font-size="13" lengthAdjust="spacing" textLength="61" x="381" y="493.3098">wager_id</text></g><!--link wagers to wager_votes--><g id="link_wagers_wager_votes"><path codeLine="128" d="M535.3727,447.9516 C546.2727,466.4416 553.76,478.62 565,496.24 C576.55,514.34 579.2362,518.72 591.6162,536.53 " fill="none" id="wagers-wager_votes" style="stroke:#000000;stroke-width:1.0;"/><line style="stroke:#000000;stroke-width:1.0;" x1="529.8955" x2="536.7872" y1="446.5372" y2="442.4745"/><line style="stroke:#000000;stroke-width:1.0;" x1="531.419" x2="538.3107" y1="449.1215" y2="445.0588"/><line style="stroke:#000000;stroke-width:1.0;" x1="535.3727" x2="531.31" y1="447.9516" y2="441.06"/><line style="stroke:#000000;stroke-width:1.0;" x1="597.3239" x2="606.8167" y1="544.7411" y2="547.8854"/><line style="stroke:#000000;stroke-width:1.0;" x1="597.3239" x2="596.9633" y1="544.7411" y2="554.7346"/><line style="stroke:#000000;stroke-width:1.0;" x1="597.3239" x2="601.89" y1="544.7411" y2="551.31"/><ellipse cx="593.8993" cy="539.8144" fill="none" rx="4" ry="4" style="stroke:#000000;stroke-width:1.0;"/><text fill="#000000" font-family="Verdana" font-size="13" lengthAdjust="spacing" textLength="61" x="566" y="493.3098">wager_id</text></g><!--link group_wagers to balance_history--><g id="link_group_wagers_balance_history"><path codeLine="129" d="M1007.6614,439.8019 C998.9314,444.8119 996.96,445.38 988,449.24 C795.99,531.88 723.07,462.44 524,526.24 C501.1,533.58 493.9024,535.6922 471.3424,545.9622 " fill="none" id="group_wagers-balance_history" style="stroke:#000000;stroke-width:1.0;"/><line style="stroke:#000000;stroke-width:1.0;" x1="1009.1397" x2="1013.1217" y1="434.3417" y2="441.2803"/><line style="stroke:#000000;stroke-width:1.0;" x1="1006.5378" x2="1010.5197" y1="435.8349" y2="442.7735"/><line style="stroke:#000000;stroke-width:1.0;" x1="1007.6614" x2="1014.6" y1="439.8019" y2="435.82"/><line style="stroke:#000000;stroke-width:1.0;" x1="462.2411" x2="457.4459" y1="550.1054" y2="558.8808"/><line style="stroke:#000000;stroke-width:1.0;" x1="462.2411" x2="452.4741" y1="550.1054" y2="547.9592"/><line style="stroke:#000000;stroke-width:1.0;" x1="462.2411" x2="454.96" y1="550.1054" y2="553.42"/><ellipse cx="467.7018" cy="547.6195" fill="none" rx="4" ry="4" style="stroke:#000000;stroke-width:1.0;"/><text fill="#000000" font-family="Verdana" font-size="13" lengthAdjust="spacing" textLength="107" x="895.46" y="493.3098">group_wager_id</text></g><!--link group_wagers to group_wager_participants--><g id="link_group_wagers_group_wager_participants"><path codeLine="130" d="M1105.3204,457.3209 C1101.1904,473.1509 1098.44,481.39 1093,496.24 C1084.04,520.71 1079.9363,530.6083 1068.1163,552.5183 " fill="none" id="group_wagers-group_wager_participants" style="stroke:#000000;stroke-width:1.0;"/><line style="stroke:#000000;stroke-width:1.0;" x1="1102.4598" x2="1110.2007" y1="452.4407" y2="454.4602"/><line style="stroke:#000000;stroke-width:1.0;" x1="1101.7024" x2="1109.4433" y1="455.3435" y2="457.3631"/><line style="stroke:#000000;stroke-width:1.0;" x1="1105.3204" x2="1107.34" y1="457.3209" y2="449.58"/><line style="stroke:#000000;stroke-width:1.0;" x1="1063.3684" x2="1064.8506" y1="561.3192" y2="571.2088"/><line style="stroke:#000000;stroke-width:1.0;" x1="1063.3684" x2="1054.2894" y1="561.3192" y2="565.5112"/><line style="stroke:#000000;stroke-width:1.0;" x1="1063.3684" x2="1059.57" y1="561.3192" y2="568.36"/><ellipse cx="1066.2171" cy="556.0386" fill="none" rx="4" ry="4" style="stroke:#000000;stroke-width:1.0;"/><text fill="#000000" font-family="Verdana" font-size="13" lengthAdjust="spacing" textLength="107" x="1099.51" y="493.3098">group_wager_id</text></g><!--link group_wagers to group_wager_votes--><g id="link_group_wagers_group_wager_votes"><path codeLine="131" d="M1236.7861,455.1874 C1252.3861,470.9574 1262.74,481.25 1278,496.24 C1296.41,514.31 1303.4145,521.1794 1322.3345,539.0794 " fill="none" id="group_wagers-group_wager_votes" style="stroke:#000000;stroke-width:1.0;"/><line style="stroke:#000000;stroke-width:1.0;" x1="1231.1293" x2="1236.8168" y1="455.1568" y2="449.5307"/><line style="stroke:#000000;stroke-width:1.0;" x1="1233.2391" x2="1238.9266" y1="457.2896" y2="451.6634"/><line style="stroke:#000000;stroke-width:1.0;" x1="1236.7861" x2="1231.16" y1="455.1874" y2="449.5"/><line style="stroke:#000000;stroke-width:1.0;" x1="1329.5987" x2="1339.5335" y1="545.952" y2="547.0915"/><line style="stroke:#000000;stroke-width:1.0;" x1="1329.5987" x2="1331.2865" y1="545.952" y2="555.8085"/><line style="stroke:#000000;stroke-width:1.0;" x1="1329.5987" x2="1335.41" y1="545.952" y2="551.45"/><ellipse cx="1325.2402" cy="541.8284" fill="none" rx="4" ry="4" style="stroke:#000000;stroke-width:1.0;"/><text fill="#000000" font-family="Verdana" font-size="13" lengthAdjust="spacing" textLength="107" x="1279" y="493.3098">group_wager_id</text></g><!--SRC=[nLPTRzem57tFh_1ucLI9Fp1LbSAQiQX06OLrRvP937W2Ex9lrg5s_tt-I27nuZILMktLz_ZwddFFlSa7sD43HSMUC1v57z5AKQaGaFMUHfG3WoCQbEPiW1uZX2uGoz4dT9SiqdY2BY_dDrTN-dWujB6SgKp875lCClcnr8ZLBFssIYpg0fbCdEZtNDYUhScUyCmSZT9nEdE7cQG4Q8u966WwJUwMyNJkSXHvM-YFgNvKvVhA50Xvz7XKB-6TY_PXP0fsT7HboJXPQCINcueDEOYIGxDma8GhaW4J7CEnQ33DgSeaAqoi8G25u1CFPDjHm5QAii3Tc82IJYuAVgzrCUfTX15vhlJ9TV8vdSOJHyxgCBgzdIJnp9uKv2XAw6K5I-3UKFSfM3rwaR2fHPW74BdjQ4uRpKpmdFaTLg0Pr0yU6EUlxzbBxhTgeEy2QAia-9U9zD6bsr4cJNSKRyIRaniRhxStl3O6RzBsVZqyC8uB8e5bh20Sr3cN2vFVNM5TkppYDWUzZpTgyg5vlQoWb8tg-yZQPnjrhesVWl4UvRSPlFvsRvltAVZ_c3tb-bMg02rAxbDbLGnB7Uj3K-Dmxinx7IyJ_vjypbTXQXiQ190zrfzra6nTwcgRLhK_1fXiDZHpiRh3k_RsWkw96J2rOuMAR1hqz3GSYaVaVQJrtK5bce47f7Qe0b6t3KpyFEr1o6dF1n6deMn3ECSPsBDRNaPLhl60zKtMMRiF3DKNckUmSFzCKWUl8FR4Bh9T2hTsNSbUCGa3dwVKXtgFds4DXS9vcpkW_LgNYA-zVwhKl_WN]--></g></svg>